<svg width="440" height="147" viewBox="0 0 440 147" fill="none" xmlns="http://www.w3.org/2000/svg">
<path d="M51.0234 41.2C65.6901 41.2 77.0901 45.7333 85.2234 54.8C93.4901 63.7333 97.6234 74.8 97.6234 88C97.6234 90.8 97.3568 94.8667 96.8234 100.2H31.2234C31.7568 107 34.4901 112.267 39.4234 116C44.3568 119.733 50.8901 121.6 59.0234 121.6C65.5568 121.6 72.1568 120.867 78.8234 119.4C85.4901 117.8 90.4234 116.067 93.6234 114.2V139.6C84.2901 144.4 71.8234 146.8 56.2234 146.8C39.2901 146.8 25.6901 141.867 15.4234 132C5.2901 122.133 0.223438 109.467 0.223438 94C0.223438 78.9333 5.0901 66.4 14.8234 56.4C24.5568 46.2667 36.6234 41.2 51.0234 41.2ZM69.0234 84.8C69.2901 79.2 67.7568 74.4667 64.4234 70.6C61.2234 66.7333 56.6901 64.8 50.8234 64.8C45.0901 64.8 40.4901 66.7333 37.0234 70.6C33.5568 74.3333 31.6234 79.0667 31.2234 84.8H69.0234ZM143.319 94C143.319 102.133 145.785 108.6 150.719 113.4C155.652 118.2 162.185 120.6 170.319 120.6C180.052 120.6 188.919 117.867 196.919 112.4V139.4C187.052 144.333 176.852 146.8 166.319 146.8C150.452 146.8 137.585 141.867 127.719 132C117.985 122 113.119 109.333 113.119 94C113.119 78.6667 117.985 66.0667 127.719 56.2C137.585 46.2 150.452 41.2 166.319 41.2C176.719 41.2 186.719 43.6 196.319 48.4V75.6C188.719 70.1333 180.052 67.4 170.319 67.4C162.319 67.4 155.785 69.8667 150.719 74.8C145.785 79.6 143.319 86 143.319 94ZM217.789 -5.72205e-06H247.189V49.6C247.189 51.3333 247.122 53.5333 246.989 56.2C246.856 58.7333 246.789 60.2 246.789 60.6C249.989 55.5333 254.456 51.0667 260.189 47.2C265.922 43.2 272.522 41.2 279.989 41.2C291.322 41.2 299.922 44.6 305.789 51.4C311.789 58.2 314.789 68.2 314.789 81.4V144H284.789V86.4C284.789 74.4 280.256 68.4 271.189 68.4C264.256 68.4 258.589 70.8 254.189 75.6C249.922 80.4 247.789 86.6 247.789 94.2V144H217.789V-5.72205e-06ZM348.236 56.2C358.369 46.2 371.103 41.2 386.436 41.2C401.769 41.2 414.503 46.2 424.636 56.2C434.769 66.2 439.836 78.8 439.836 94C439.836 109.2 434.769 121.8 424.636 131.8C414.503 141.8 401.769 146.8 386.436 146.8C371.103 146.8 358.369 141.8 348.236 131.8C338.236 121.8 333.236 109.2 333.236 94C333.236 78.8 338.236 66.2 348.236 56.2ZM368.436 114C373.236 119.067 379.236 121.6 386.436 121.6C393.636 121.6 399.636 119.067 404.436 114C409.236 108.8 411.636 102.133 411.636 94C411.636 85.8667 409.236 79.2667 404.436 74.2C399.636 69 393.636 66.4 386.436 66.4C379.236 66.4 373.236 69 368.436 74.2C363.769 79.2667 361.436 85.8667 361.436 94C361.436 102.133 363.769 108.8 368.436 114Z" fill="url(#paint0_linear_1015_1195)"/>
<defs>
<linearGradient id="paint0_linear_1015_1195" x1="446" y1="-41.9998" x2="6.88457" y2="183.131" gradientUnits="userSpaceOnUse">
<stop offset="0.210937" stop-color="#FFBB33"/>
<stop offset="0.551829" stop-color="#E300BD"/>
<stop offset="0.926448" stop-color="#FF006A"/>
</linearGradient>
</defs>
</svg>
